<?xml version="1.0" encoding="UTF-8" standalone="no"?>
<svg
   xmlns:dc="http://purl.org/dc/elements/1.1/"
   xmlns:cc="http://creativecommons.org/ns#"
   xmlns:rdf="http://www.w3.org/1999/02/22-rdf-syntax-ns#"
   xmlns:svg="http://www.w3.org/2000/svg"
   xmlns="http://www.w3.org/2000/svg"
   xmlns:sodipodi="http://sodipodi.sourceforge.net/DTD/sodipodi-0.dtd"
   xmlns:inkscape="http://www.inkscape.org/namespaces/inkscape"
   sodipodi:docname="logo.svg"
   inkscape:version="1.0 (4035a4fb49, 2020-05-01)"
   version="1.1"
   id="svg3336"
   viewBox="0 0 400 400.00001"
   height="400"
   width="400"
   inkscape:export-filename="C:\Users\sofia\Pictures\ecommerce\logo3.png"
   inkscape:export-xdpi="96.852509"
   inkscape:export-ydpi="96.852509">
  <defs
     id="defs3338">
    <marker
       inkscape:isstock="true"
       style="overflow:visible;"
       id="Arrow1Lend"
       refX="0.0"
       refY="0.0"
       orient="auto"
       inkscape:stockid="Arrow1Lend">
      <path
         transform="scale(0.8) rotate(180) translate(12.5,0)"
         style="fill-rule:evenodd;stroke:#000000;stroke-width:1pt;stroke-opacity:1;fill:#000000;fill-opacity:1"
         d="M 0.0,0.0 L 5.0,-5.0 L -12.5,0.0 L 5.0,5.0 L 0.0,0.0 z "
         id="path4620" />
    </marker>
  </defs>
  <sodipodi:namedview
     inkscape:document-rotation="0"
     inkscape:window-maximized="1"
     inkscape:window-y="-8"
     inkscape:window-x="-8"
     inkscape:window-height="705"
     inkscape:window-width="1366"
     units="px"
     showgrid="false"
     inkscape:current-layer="g979"
     inkscape:document-units="px"
     inkscape:cy="268.89371"
     inkscape:cx="81.944458"
     inkscape:zoom="0.69"
     inkscape:pageshadow="2"
     inkscape:pageopacity="0.0"
     borderopacity="1.0"
     bordercolor="#666666"
     pagecolor="#ffffff"
     id="base" />
  <metadata
     id="metadata3341">
    <rdf:RDF>
      <cc:Work
         rdf:about="">
        <dc:format>image/svg+xml</dc:format>
        <dc:type
           rdf:resource="http://purl.org/dc/dcmitype/StillImage" />
        <dc:title />
      </cc:Work>
    </rdf:RDF>
  </metadata>
  <g
     transform="translate(0,-652.36216)"
     id="layer1"
     inkscape:groupmode="layer"
     inkscape:label="Camada 1">
    <path
       d="m -502.34949,914.26185 a 0.32104701,13.754327 0 0 1 -0.38154,10.44088 0.32104701,13.754327 0 0 1 -0.24588,-16.28617 0.32104701,13.754327 0 0 1 0.37873,-10.62674 0.32104701,13.754327 0 0 1 0.25021,16.16488"
       sodipodi:arc-type="arc"
       sodipodi:open="true"
       sodipodi:end="0.19700578"
       sodipodi:start="0.2198312"
       sodipodi:ry="13.754327"
       sodipodi:rx="0.32104701"
       sodipodi:cy="911.26251"
       sodipodi:cx="-502.66281"
       sodipodi:type="arc"
       id="path161"
       style="fill:#ffffff;fill-rule:evenodd;stroke-width:19.8992;stroke-linejoin:round;paint-order:stroke fill markers" />
    <g
       transform="matrix(0.99492977,0,0,0.98423764,-12.903941,24.721027)"
       id="g222">
      <g
         id="g903"
         transform="translate(104.87959,-36.81213)"
         style="opacity:1">
        <g
           id="g979"
           transform="matrix(0.97541566,0,0,0.97541566,-2.3250612,-61.263379)">
          <rect
             style="opacity:0;fill:#ffffff;fill-opacity:1;stroke:none;stroke-width:5.6678;stroke-linecap:butt;stroke-miterlimit:4;stroke-dasharray:none;stroke-dashoffset:0;stroke-opacity:1"
             id="rect3344"
             width="414.76102"
             height="110.76249"
             x="-94.574883"
             y="896.90619" />
          <g
             id="g860"
             style="stroke:#000000;stroke-width:1.41476;stroke-miterlimit:4;stroke-dasharray:none;stroke-opacity:1">
            <path
               d="m 134.72419,913.1592 c -3.31837,-1.32557 -6.80691,-2.3548 -10.40166,-3.0688 -20.07192,-3.98816 -41.007695,2.2579 -52.656812,15.71088 -17.383731,5.29681 -37.952103,22.15559 -40.947512,33.65796 -4.47626,17.18836 21.652885,24.91416 48.699739,25.10993 3.638778,0.0264 7.332768,-0.20525 11.015067,-0.69005 3.438488,1.4076 7.065719,2.49624 10.808308,3.24254 26.76946,5.33829 53.64627,-7.56692 60.03984,-28.82857 l -24.6445,-4.92249 0.009,-0.0323 24.65494,4.89095 c 5.37296,-17.99986 -5.66104,-36.71276 -26.57604,-45.07007 z"
               style="fill:#b3b3b3;fill-rule:evenodd;stroke:#000000;stroke-width:1.41476;stroke-linejoin:round;stroke-miterlimit:4;stroke-dasharray:none;stroke-opacity:1;paint-order:stroke fill markers"
               id="path171" />
            <path
               sodipodi:arc-type="arc"
               sodipodi:open="true"
               sodipodi:end="0.19700578"
               sodipodi:start="0.2198312"
               sodipodi:ry="16.237169"
               sodipodi:rx="21.485643"
               sodipodi:cy="915.01447"
               sodipodi:cx="196.94183"
               sodipodi:type="arc"
               id="path142"
               style="fill:#999999;fill-rule:evenodd;stroke:#000000;stroke-width:1.41476;stroke-linejoin:round;stroke-miterlimit:4;stroke-dasharray:none;stroke-opacity:1;paint-order:stroke fill markers"
               transform="matrix(0.98818398,0.15327237,-0.15007033,0.98867532,0,0)"
               d="m 217.91041,918.55522 a 21.485643,16.237169 0 0 1 -25.53411,12.3256 21.485643,16.237169 0 0 1 -16.45515,-19.22603 21.485643,16.237169 0 0 1 25.34632,-12.54502 21.485643,16.237169 0 0 1 16.74441,19.08286" />
            <path
               transform="matrix(0.72151445,-0.69239937,0.68457409,0.72894329,0,0)"
               style="fill:#999999;fill-rule:evenodd;stroke:#000000;stroke-width:1.4148;stroke-linejoin:round;stroke-miterlimit:4;stroke-dasharray:none;stroke-opacity:1;paint-order:stroke fill markers"
               id="path182"
               sodipodi:type="arc"
               sodipodi:cx="-615.05139"
               sodipodi:cy="750.57117"
               sodipodi:rx="21.591175"
               sodipodi:ry="16.158663"
               sodipodi:start="0.2198312"
               sodipodi:end="0.19700578"
               sodipodi:open="true"
               sodipodi:arc-type="arc"
               d="m -593.97982,754.0948 a 21.591175,16.158663 0 0 1 -25.65953,12.26601 21.591175,16.158663 0 0 1 -16.53597,-19.13308 21.591175,16.158663 0 0 1 25.47081,-12.48436 21.591175,16.158663 0 0 1 16.82666,18.9906" />
            <path
               id="path186"
               d="m 154.96015,931.06737 c 34.12727,-29.88548 10.20029,-24.12965 10.20029,-24.12965 l 15.56474,14.81759"
               style="fill:none;stroke:#000000;stroke-width:1.41476;stroke-linecap:butt;stroke-linejoin:miter;stroke-miterlimit:4;stroke-dasharray:none;stroke-opacity:1" />
          </g>
          <g
             style="font-style:normal;font-variant:normal;font-weight:normal;font-stretch:normal;font-size:45.4349px;line-height:1.25;font-family:'Berlin Sans FB Demi';-inkscape-font-specification:'Berlin Sans FB Demi';letter-spacing:0px;fill:#de87cd;stroke-width:1.13587"
             id="text874"
             aria-label="pads ">
            <path
               id="path903"
               style="font-style:normal;font-variant:normal;font-weight:normal;font-stretch:normal;font-size:85.7058px;font-family:'Alone On Earth';-inkscape-font-specification:'Alone On Earth, Normal';font-variant-ligatures:normal;font-variant-caps:normal;font-variant-numeric:normal;font-variant-east-asian:normal;letter-spacing:0px;fill:#de87cd;fill-opacity:1;stroke-width:1.13587"
               d="m 177.26133,957.38925 c 0,9.25622 -0.0857,18.51245 0,27.76868 0,0.59994 0,1.19988 0,1.79982 0,0.34282 0.25712,0.59994 0.59994,0.59994 1.19988,0 2.39976,0.0857 3.68535,0.0857 0.68565,0 1.457,-0.0857 2.14265,-0.0857 0.25711,0 0.51423,-0.25712 0.51423,-0.42853 0.0857,-0.59994 0.0857,-1.19988 0.0857,-1.88553 0,-5.65658 0,-11.31316 0.0857,-16.96974 0,-0.59995 0,-1.19989 0,-1.79983 0,-0.42853 0.25712,-0.68564 0.68565,-0.77135 0.68565,-0.0857 1.457,-0.0857 2.14264,-0.17141 2.31406,-0.17141 4.54241,-0.68565 6.68506,-1.62841 5.14234,-2.14265 8.57058,-5.99941 9.94187,-11.48458 0.68565,-2.65688 0.85706,-5.22805 0.59994,-7.88493 -0.17141,-2.14265 -0.51423,-4.28529 -1.28559,-6.34223 -1.79982,-5.05664 -5.39946,-8.39917 -10.54181,-9.94187 -2.31406,-0.68565 -4.71382,-0.94277 -7.11358,-1.02847 -2.14265,0 -4.28529,0 -6.51364,0 -0.34283,0 -0.68565,0.0857 -1.02847,0.0857 -0.34283,0 -0.59994,0.25712 -0.68565,0.59994 0,0.59994 0,1.19988 0,1.79982 0,9.25623 0,18.51246 0,27.68298 0,0 0,0 0,0 z m 7.11358,-20.82651 c 0,-0.59994 0.0857,-1.11418 0.0857,-1.71412 0,-0.17141 0.17141,-0.34282 0.34282,-0.34282 0.0857,0 0.17141,-0.0857 0.17141,-0.0857 1.97124,-0.0857 3.94247,0.0857 5.828,0.68565 3.08541,1.11417 5.05664,3.25682 5.9994,6.25652 0.42853,1.3713 0.59994,2.65688 0.59994,4.02818 0.0857,1.88552 -0.0857,3.77105 -0.59994,5.65658 -0.17141,0.59994 -0.34282,1.19988 -0.59994,1.71411 -0.85705,1.97124 -2.31405,3.34253 -4.19958,4.28529 -0.25712,0.0857 -0.51424,0.25712 -0.85706,0.34283 -1.97123,0.68564 -4.02817,0.94276 -6.08511,1.02847 -0.34282,0.0857 -0.59994,-0.17141 -0.68565,-0.51424 0,-0.51423 0,-1.11417 0,-1.62841 0,-3.34252 0,-6.68505 0,-9.94187 0,0 0,0 0,0 0,-3.25682 0,-6.51364 0,-9.77046 z" />
            <path
               id="path905"
               style="font-style:normal;font-variant:normal;font-weight:normal;font-stretch:normal;font-size:85.7058px;font-family:'Alone On Earth';-inkscape-font-specification:'Alone On Earth, Normal';font-variant-ligatures:normal;font-variant-caps:normal;font-variant-numeric:normal;font-variant-east-asian:normal;letter-spacing:0px;fill:#de87cd;fill-opacity:1;stroke-width:1.13587"
               d="m 234.06419,973.24482 c 0,-1.11417 0,-2.31406 -0.0857,-3.51394 -0.0857,-3.25682 -0.25711,-6.51364 -0.42852,-9.77046 -0.25712,-3.25682 -0.51424,-6.51364 -0.94277,-9.68475 -0.42853,-3.08541 -0.94276,-6.08512 -1.62841,-9.08482 -0.51423,-2.31406 -1.19988,-4.54241 -2.14264,-6.68505 -0.42853,-1.02847 -1.02847,-2.05694 -1.71412,-3.08541 -0.51423,-0.68565 -1.11417,-1.37129 -1.88553,-1.97123 -0.94276,-0.59994 -1.97123,-1.02847 -3.08541,-1.02847 -1.45699,0 -2.65688,0.51423 -3.68535,1.457 -0.68564,0.59994 -1.28558,1.28558 -1.79982,2.05693 -0.77135,1.19989 -1.28558,2.39977 -1.79982,3.59965 -0.94276,2.39976 -1.62841,4.79952 -2.22835,7.28499 -0.68565,2.82829 -1.19988,5.65658 -1.5427,8.48488 -0.42853,2.91399 -0.85706,5.82799 -1.11418,8.82769 -0.0857,1.54271 -0.25712,3.17112 -0.42853,4.79953 -0.17141,2.57117 -0.42853,5.14235 -0.51423,7.71352 -0.25712,4.54241 -0.42853,9.08482 -0.59994,13.62722 -0.0857,0.17142 -0.0857,0.34283 0,0.51424 0,0.0857 0.17141,0.25712 0.25711,0.25712 0.42853,0.0857 0.85706,0.17141 1.28559,0.17141 1.62841,0.25711 3.25682,0.25711 4.97094,0.25711 0.25711,0 0.42853,-0.17141 0.51423,-0.42852 0,-0.0857 0,-0.25712 0,-0.34283 0.17141,-2.31405 0.25712,-4.5424 0.42853,-6.85646 0.0857,-1.79982 0.25712,-3.68535 0.34282,-5.48517 0,-0.17141 0.0857,-0.25712 0.0857,-0.34283 0.0857,-0.25711 0.25712,-0.34282 0.42853,-0.42853 0.17141,0 0.42853,-0.0857 0.68564,-0.0857 2.8283,0 5.65659,0 8.48488,0 0.17141,0 0.34282,0 0.59994,0 0.25712,0 0.51423,0.25712 0.51423,0.59994 0.17142,2.14264 0.25712,4.28529 0.34283,6.42793 0.0857,1.88553 0.17141,3.85677 0.25712,5.74229 0.0857,0.34283 0.0857,0.59994 0.17141,0.94277 0,0.0857 0.17141,0.25711 0.34282,0.34282 0.25712,0.0857 0.51424,0.0857 0.68565,0 1.5427,0 2.9997,-0.0857 4.4567,-0.0857 0.34282,-0.0857 0.59994,-0.0857 0.94276,-0.0857 0.25712,0 0.42853,-0.25712 0.51424,-0.51424 0,-0.51423 0,-1.11417 0,-1.62841 -0.17141,-4.02817 -0.42853,-7.97064 -0.59994,-11.99881 0,0 -0.0857,0 -0.0857,0 z m -15.76987,-6.77076 c -0.25711,0 -0.59994,-0.0857 -0.94276,-0.0857 -0.17141,0 -0.42853,-0.25712 -0.42853,-0.51424 0.0857,-1.11417 0.0857,-2.22835 0.25712,-3.25682 0.0857,-1.79982 0.34282,-3.59964 0.51423,-5.31376 0.25712,-2.39976 0.51424,-4.79952 0.85706,-7.19929 0.42853,-2.57117 0.77135,-5.05664 1.37129,-7.62781 0.42853,-1.62841 0.77136,-3.17112 1.457,-4.71382 0.0857,-0.34282 0.25712,-0.59994 0.42853,-0.85706 0.0857,-0.0857 0.25712,-0.0857 0.34282,0 0.17142,0.25712 0.34283,0.51424 0.42853,0.77135 0.68565,1.88553 1.11418,3.77106 1.54271,5.74229 0.68564,3.59965 1.19988,7.19929 1.5427,10.88464 0.25712,3.51394 0.59994,7.02787 0.94277,10.54181 0,0.34283 0,0.68565 0,1.02847 -0.0857,0.25712 -0.17142,0.42853 -0.34283,0.42853 -0.34282,0.0857 -0.59994,0.0857 -0.94276,0.0857 -1.19988,0 -2.48547,0 -3.68535,0 0,0 0,0.0857 0,0.0857 -1.11418,0 -2.22835,0 -3.34253,0 z" />
            <path
               id="path907"
               style="font-style:normal;font-variant:normal;font-weight:normal;font-stretch:normal;font-size:85.7058px;font-family:'Alone On Earth';-inkscape-font-specification:'Alone On Earth, Normal';font-variant-ligatures:normal;font-variant-caps:normal;font-variant-numeric:normal;font-variant-east-asian:normal;letter-spacing:0px;fill:#de87cd;fill-opacity:1;stroke-width:1.13587"
               d="m 241.70406,956.78931 c -0.0857,9.25622 -0.17142,18.51245 -0.25712,27.68297 -0.0857,0.34282 0,0.59994 0,0.94277 0.0857,0.17141 0.34282,0.42852 0.51423,0.42852 0.34283,0.0857 0.77135,0.0857 1.11418,0.0857 1.5427,0 3.08541,0 4.62811,0 1.54271,0.0857 3.08541,-0.17141 4.54241,-0.51423 3.85676,-0.94277 7.19929,-2.8283 10.02758,-5.57088 2.48547,-2.31406 4.37099,-5.05664 5.82799,-8.05635 2.22835,-4.5424 3.42823,-9.42764 3.42823,-14.56998 0,-2.31406 -0.0857,-4.54241 -0.42852,-6.77076 -0.34283,-2.65688 -0.94277,-5.22806 -1.97124,-7.71352 -2.22835,-5.48518 -5.9994,-9.51335 -11.39887,-11.91311 -1.11418,-0.51424 -2.31406,-0.94276 -3.42823,-1.28559 -2.14265,-0.68564 -4.371,-1.11417 -6.51364,-1.37129 -1.62841,-0.25712 -3.17112,-0.34282 -4.79953,-0.42853 -0.68564,0 -0.94276,0.25712 -0.94276,0.85706 0,0.34282 0,0.68564 0,1.11417 -0.0857,8.99911 -0.25712,18.08393 -0.34282,27.08304 0,0 0,0 0,0 z m 7.37069,-18.94099 c 0,-2.22835 -0.17141,-2.48546 2.31406,-1.79982 1.62841,0.42853 3.17112,1.02847 4.62811,1.79982 2.57118,1.457 4.54241,3.51394 5.9137,6.17082 0.85706,1.71412 1.457,3.51394 1.79983,5.39947 0.51423,2.39976 0.77135,4.88523 0.77135,7.3707 -0.0857,5.14235 -1.457,9.94187 -4.19959,14.31287 -1.11417,1.79982 -2.57117,3.42823 -4.28529,4.79952 -1.5427,1.19988 -3.25682,2.14265 -5.22805,2.57118 -0.59994,0.17141 -1.19988,0.34282 -1.79982,0.17141 -0.0857,0 -0.17141,-0.0857 -0.25712,-0.25712 -0.0857,-0.0857 -0.0857,-0.34282 -0.0857,-0.51424 -0.0857,-0.59994 0,-1.19988 0,-1.79982 0.0857,-5.48517 0.0857,-10.97034 0.17141,-16.45551 0.0857,-0.77135 0,-1.54271 0,-2.39976 0,0 0.0857,0 0.0857,0 0,-6.42794 0.0857,-12.85587 0.17141,-19.36952 z" />
            <path
               id="path909"
               style="font-style:normal;font-variant:normal;font-weight:normal;font-stretch:normal;font-size:85.7058px;font-family:'Alone On Earth';-inkscape-font-specification:'Alone On Earth, Normal';font-variant-ligatures:normal;font-variant-caps:normal;font-variant-numeric:normal;font-variant-east-asian:normal;letter-spacing:0px;fill:#de87cd;fill-opacity:1;stroke-width:1.13587"
               d="m 281.46083,971.27359 c -1.02847,0.0857 -2.05694,0.0857 -3.08541,0.17141 -0.51423,0.0857 -0.68564,0.25712 -0.68564,0.77135 0,2.39976 0.42853,4.71382 1.37129,6.94217 2.65688,6.17082 9.25623,8.91341 15.34134,7.19929 4.4567,-1.28559 7.54211,-4.28529 9.17052,-8.65629 0.51424,-1.37129 0.77135,-2.82829 0.85706,-4.28529 0.34282,-2.9997 -0.17141,-5.74229 -1.54271,-8.39917 -0.77135,-1.5427 -1.79982,-2.91399 -2.9997,-4.19958 -1.37129,-1.37129 -2.82829,-2.65688 -4.54241,-3.77106 -1.62841,-1.11417 -3.25682,-2.14264 -4.97093,-3.17111 -1.19988,-0.77135 -2.39977,-1.5427 -3.59965,-2.22835 -1.11417,-0.68565 -1.88552,-1.54271 -2.39976,-2.74259 -0.25712,-0.51423 -0.51423,-1.11417 -0.68565,-1.71411 -0.77135,-2.57118 -0.94276,-5.14235 -0.34282,-7.79923 0.25712,-1.11418 0.59994,-2.22835 1.28559,-3.25682 1.02847,-1.71412 2.48547,-2.65688 4.37099,-2.9997 0.34283,0 0.68565,0 0.94277,0 0.94276,0.17141 1.62841,0.68564 2.05694,1.45699 0.42853,0.68565 0.68564,1.457 0.94276,2.22836 0.17141,1.02846 0.34282,2.14264 0.34282,3.25682 0.0857,0.51423 0.34283,0.77135 0.85706,0.77135 1.88553,0 3.68535,0 5.57088,0 0,0 0.0857,0 0.17141,0 0.34282,-0.0857 0.59994,-0.34283 0.51424,-0.59994 -0.0857,-2.22835 -0.34283,-4.4567 -1.02847,-6.59935 -0.42853,-1.37129 -1.11418,-2.74259 -1.97124,-3.94247 -1.457,-1.79982 -3.25682,-2.91399 -5.57087,-3.34252 -1.457,-0.34283 -2.914,-0.34283 -4.371,-0.0857 -3.42823,0.51424 -6.08511,2.22835 -8.14205,4.97094 -1.28559,1.62841 -2.05694,3.42823 -2.65688,5.39946 -0.68565,2.39977 -0.85706,4.79953 -0.77135,7.285 0.0857,2.65688 0.68564,5.14235 1.79982,7.54211 1.28559,2.74258 3.17111,4.97093 5.74229,6.51364 0.94276,0.51423 1.79982,1.02847 2.74258,1.62841 1.02847,0.59994 1.97124,1.19988 2.99971,1.79982 1.37129,0.85706 2.65688,1.71412 3.94246,2.74259 0.94277,0.85705 1.79982,1.71411 2.48547,2.74258 2.14265,2.82829 2.39976,5.9137 1.11418,9.25623 -0.34283,0.77135 -0.85706,1.37129 -1.457,1.88553 -1.457,1.11417 -3.17112,1.62841 -4.97094,1.62841 -1.88553,-0.0857 -3.34252,-0.94277 -4.28529,-2.48547 -0.42853,-0.77135 -0.77135,-1.54271 -0.94276,-2.39976 -0.17141,-1.02847 -0.25712,-1.97124 -0.34283,-2.914 0,-0.51424 -0.25711,-0.77135 -0.68564,-0.68565 -0.85706,0 -1.71412,0 -2.57118,0.0857 0,0 0,0 0,0 z" />
          </g>
          <g
             style="font-style:normal;font-variant:normal;font-weight:normal;font-stretch:normal;font-size:45.4349px;line-height:1.25;font-family:'Berlin Sans FB Demi';-inkscape-font-specification:'Berlin Sans FB Demi';letter-spacing:0px;stroke-width:1.13587"
             id="text196"
             aria-label="pads ">
            <path
               id="path912"
               style="font-style:normal;font-variant:normal;font-weight:normal;font-stretch:normal;font-size:85.7058px;font-family:'Alone On Earth';-inkscape-font-specification:'Alone On Earth, Normal';font-variant-ligatures:normal;font-variant-caps:normal;font-variant-numeric:normal;font-variant-east-asian:normal;letter-spacing:0px;fill:#881167;fill-opacity:1;stroke-width:1.13587"
               d="m 173.24095,957.38925 c 0,9.25622 -0.0857,18.51245 0,27.76868 0,0.59994 0,1.19988 0,1.79982 0,0.34282 0.25711,0.59994 0.59994,0.59994 1.19988,0 2.39976,0.0857 3.68535,0.0857 0.68564,0 1.45699,-0.0857 2.14264,-0.0857 0.25712,0 0.51424,-0.25712 0.51424,-0.42853 0.0857,-0.59994 0.0857,-1.19988 0.0857,-1.88553 0,-5.65658 0,-11.31316 0.0857,-16.96974 0,-0.59995 0,-1.19989 0,-1.79983 0,-0.42853 0.25711,-0.68564 0.68564,-0.77135 0.68565,-0.0857 1.457,-0.0857 2.14265,-0.17141 2.31406,-0.17141 4.54241,-0.68565 6.68505,-1.62841 5.14235,-2.14265 8.57058,-5.99941 9.94187,-11.48458 0.68565,-2.65688 0.85706,-5.22805 0.59994,-7.88493 -0.17141,-2.14265 -0.51423,-4.28529 -1.28558,-6.34223 -1.79982,-5.05664 -5.39947,-8.39917 -10.54182,-9.94187 -2.31405,-0.68565 -4.71382,-0.94277 -7.11358,-1.02847 -2.14264,0 -4.28529,0 -6.51364,0 -0.34282,0 -0.68565,0.0857 -1.02847,0.0857 -0.34282,0 -0.59994,0.25712 -0.68564,0.59994 0,0.59994 0,1.19988 0,1.79982 0,9.25623 0,18.51246 0,27.68298 0,0 0,0 0,0 z m 7.11358,-20.82651 c 0,-0.59994 0.0857,-1.11418 0.0857,-1.71412 0,-0.17141 0.17141,-0.34282 0.34283,-0.34282 0.0857,0 0.17141,-0.0857 0.17141,-0.0857 1.97123,-0.0857 3.94246,0.0857 5.82799,0.68565 3.08541,1.11417 5.05664,3.25682 5.99941,6.25652 0.42853,1.3713 0.59994,2.65688 0.59994,4.02818 0.0857,1.88552 -0.0857,3.77105 -0.59994,5.65658 -0.17141,0.59994 -0.34282,1.19988 -0.59994,1.71411 -0.85706,1.97124 -2.31406,3.34253 -4.19959,4.28529 -0.25711,0.0857 -0.51423,0.25712 -0.85705,0.34283 -1.97124,0.68564 -4.02818,0.94276 -6.08512,1.02847 -0.34282,0.0857 -0.59994,-0.17141 -0.68564,-0.51424 0,-0.51423 0,-1.11417 0,-1.62841 0,-3.34252 0,-6.68505 0,-9.94187 0,0 0,0 0,0 0,-3.25682 0,-6.51364 0,-9.77046 z" />
            <path
               id="path914"
               style="font-style:normal;font-variant:normal;font-weight:normal;font-stretch:normal;font-size:85.7058px;font-family:'Alone On Earth';-inkscape-font-specification:'Alone On Earth, Normal';font-variant-ligatures:normal;font-variant-caps:normal;font-variant-numeric:normal;font-variant-east-asian:normal;letter-spacing:0px;fill:#881167;fill-opacity:1;stroke-width:1.13587"
               d="m 230.0438,973.24482 c 0,-1.11417 0,-2.31406 -0.0857,-3.51394 -0.0857,-3.25682 -0.25712,-6.51364 -0.42853,-9.77046 -0.25712,-3.25682 -0.51423,-6.51364 -0.94276,-9.68475 -0.42853,-3.08541 -0.94277,-6.08512 -1.62841,-9.08482 -0.51424,-2.31406 -1.19989,-4.54241 -2.14265,-6.68505 -0.42853,-1.02847 -1.02847,-2.05694 -1.71412,-3.08541 -0.51423,-0.68565 -1.11417,-1.37129 -1.88552,-1.97123 -0.94277,-0.59994 -1.97124,-1.02847 -3.08541,-1.02847 -1.457,0 -2.65688,0.51423 -3.68535,1.457 -0.68565,0.59994 -1.28559,1.28558 -1.79982,2.05693 -0.77136,1.19989 -1.28559,2.39977 -1.79982,3.59965 -0.94277,2.39976 -1.62842,4.79952 -2.22836,7.28499 -0.68564,2.82829 -1.19988,5.65658 -1.5427,8.48488 -0.42853,2.91399 -0.85706,5.82799 -1.11418,8.82769 -0.0857,1.54271 -0.25711,3.17112 -0.42852,4.79953 -0.17142,2.57117 -0.42853,5.14235 -0.51424,7.71352 -0.25712,4.54241 -0.42853,9.08482 -0.59994,13.62722 -0.0857,0.17142 -0.0857,0.34283 0,0.51424 0,0.0857 0.17141,0.25712 0.25712,0.25712 0.42853,0.0857 0.85706,0.17141 1.28558,0.17141 1.62841,0.25711 3.25682,0.25711 4.97094,0.25711 0.25712,0 0.42853,-0.17141 0.51424,-0.42852 0,-0.0857 0,-0.25712 0,-0.34283 0.17141,-2.31405 0.25711,-4.5424 0.42852,-6.85646 0.0857,-1.79982 0.25712,-3.68535 0.34283,-5.48517 0,-0.17141 0.0857,-0.25712 0.0857,-0.34283 0.0857,-0.25711 0.25712,-0.34282 0.42853,-0.42853 0.17141,0 0.42853,-0.0857 0.68565,-0.0857 2.82829,0 5.65658,0 8.48487,0 0.17142,0 0.34283,0 0.59994,0 0.25712,0 0.51424,0.25712 0.51424,0.59994 0.17141,2.14264 0.25712,4.28529 0.34282,6.42793 0.0857,1.88553 0.17141,3.85677 0.25712,5.74229 0.0857,0.34283 0.0857,0.59994 0.17141,0.94277 0,0.0857 0.17141,0.25711 0.34282,0.34282 0.25712,0.0857 0.51424,0.0857 0.68565,0 1.54271,0 2.9997,-0.0857 4.4567,-0.0857 0.34283,-0.0857 0.59994,-0.0857 0.94277,-0.0857 0.25711,0 0.42853,-0.25712 0.51423,-0.51424 0,-0.51423 0,-1.11417 0,-1.62841 -0.17141,-4.02817 -0.42853,-7.97064 -0.59994,-11.99881 0,0 -0.0857,0 -0.0857,0 z m -15.76986,-6.77076 c -0.25712,0 -0.59994,-0.0857 -0.94277,-0.0857 -0.17141,0 -0.42853,-0.25712 -0.42853,-0.51424 0.0857,-1.11417 0.0857,-2.22835 0.25712,-3.25682 0.0857,-1.79982 0.34282,-3.59964 0.51424,-5.31376 0.25711,-2.39976 0.51423,-4.79952 0.85705,-7.19929 0.42853,-2.57117 0.77136,-5.05664 1.3713,-7.62781 0.42853,-1.62841 0.77135,-3.17112 1.457,-4.71382 0.0857,-0.34282 0.25711,-0.59994 0.42853,-0.85706 0.0857,-0.0857 0.25711,-0.0857 0.34282,0 0.17141,0.25712 0.34282,0.51424 0.42853,0.77135 0.68564,1.88553 1.11417,3.77106 1.5427,5.74229 0.68565,3.59965 1.19988,7.19929 1.54271,10.88464 0.25711,3.51394 0.59994,7.02787 0.94276,10.54181 0,0.34283 0,0.68565 0,1.02847 -0.0857,0.25712 -0.17141,0.42853 -0.34282,0.42853 -0.34283,0.0857 -0.59994,0.0857 -0.94277,0.0857 -1.19988,0 -2.48547,0 -3.68535,0 0,0 0,0.0857 0,0.0857 -1.11417,0 -2.22835,0 -3.34252,0 z" />
            <path
               id="path916"
               style="font-style:normal;font-variant:normal;font-weight:normal;font-stretch:normal;font-size:85.7058px;font-family:'Alone On Earth';-inkscape-font-specification:'Alone On Earth, Normal';font-variant-ligatures:normal;font-variant-caps:normal;font-variant-numeric:normal;font-variant-east-asian:normal;letter-spacing:0px;fill:#881167;fill-opacity:1;stroke-width:1.13587"
               d="m 237.68367,956.78931 c -0.0857,9.25622 -0.17141,18.51245 -0.25712,27.68297 -0.0857,0.34282 0,0.59994 0,0.94277 0.0857,0.17141 0.34283,0.42852 0.51424,0.42852 0.34282,0.0857 0.77135,0.0857 1.11417,0.0857 1.54271,0 3.08541,0 4.62812,0 1.5427,0.0857 3.0854,-0.17141 4.5424,-0.51423 3.85676,-0.94277 7.19929,-2.8283 10.02758,-5.57088 2.48547,-2.31406 4.371,-5.05664 5.828,-8.05635 2.22835,-4.5424 3.42823,-9.42764 3.42823,-14.56998 0,-2.31406 -0.0857,-4.54241 -0.42853,-6.77076 -0.34282,-2.65688 -0.94276,-5.22806 -1.97123,-7.71352 -2.22835,-5.48518 -5.99941,-9.51335 -11.39888,-11.91311 -1.11417,-0.51424 -2.31405,-0.94276 -3.42823,-1.28559 -2.14264,-0.68564 -4.37099,-1.11417 -6.51364,-1.37129 -1.62841,-0.25712 -3.17111,-0.34282 -4.79952,-0.42853 -0.68565,0 -0.94277,0.25712 -0.94277,0.85706 0,0.34282 0,0.68564 0,1.11417 -0.0857,8.99911 -0.25711,18.08393 -0.34282,27.08304 0,0 0,0 0,0 z m 7.3707,-18.94099 c 0,-2.22835 -0.17141,-2.48546 2.31406,-1.79982 1.62841,0.42853 3.17111,1.02847 4.62811,1.79982 2.57117,1.457 4.54241,3.51394 5.9137,6.17082 0.85706,1.71412 1.457,3.51394 1.79982,5.39947 0.51424,2.39976 0.77135,4.88523 0.77135,7.3707 -0.0857,5.14235 -1.457,9.94187 -4.19958,14.31287 -1.11418,1.79982 -2.57118,3.42823 -4.28529,4.79952 -1.54271,1.19988 -3.25682,2.14265 -5.22806,2.57118 -0.59994,0.17141 -1.19988,0.34282 -1.79982,0.17141 -0.0857,0 -0.17141,-0.0857 -0.25711,-0.25712 -0.0857,-0.0857 -0.0857,-0.34282 -0.0857,-0.51424 -0.0857,-0.59994 0,-1.19988 0,-1.79982 0.0857,-5.48517 0.0857,-10.97034 0.17141,-16.45551 0.0857,-0.77135 0,-1.54271 0,-2.39976 0,0 0.0857,0 0.0857,0 0,-6.42794 0.0857,-12.85587 0.17141,-19.36952 z" />
            <path
               id="path918"
               style="font-style:normal;font-variant:normal;font-weight:normal;font-stretch:normal;font-size:85.7058px;font-family:'Alone On Earth';-inkscape-font-specification:'Alone On Earth, Normal';font-variant-ligatures:normal;font-variant-caps:normal;font-variant-numeric:normal;font-variant-east-asian:normal;letter-spacing:0px;fill:#881167;fill-opacity:1;stroke-width:1.13587"
               d="m 277.44045,971.27359 c -1.02847,0.0857 -2.05694,0.0857 -3.08541,0.17141 -0.51424,0.0857 -0.68565,0.25712 -0.68565,0.77135 0,2.39976 0.42853,4.71382 1.3713,6.94217 2.65688,6.17082 9.25622,8.91341 15.34133,7.19929 4.45671,-1.28559 7.54212,-4.28529 9.17053,-8.65629 0.51423,-1.37129 0.77135,-2.82829 0.85705,-4.28529 0.34283,-2.9997 -0.17141,-5.74229 -1.5427,-8.39917 -0.77135,-1.5427 -1.79982,-2.91399 -2.9997,-4.19958 -1.3713,-1.37129 -2.8283,-2.65688 -4.54241,-3.77106 -1.62841,-1.11417 -3.25682,-2.14264 -4.97094,-3.17111 -1.19988,-0.77135 -2.39976,-1.5427 -3.59964,-2.22835 -1.11418,-0.68565 -1.88553,-1.54271 -2.39976,-2.74259 -0.25712,-0.51423 -0.51424,-1.11417 -0.68565,-1.71411 -0.77135,-2.57118 -0.94276,-5.14235 -0.34282,-7.79923 0.25711,-1.11418 0.59994,-2.22835 1.28558,-3.25682 1.02847,-1.71412 2.48547,-2.65688 4.371,-2.9997 0.34282,0 0.68565,0 0.94276,0 0.94277,0.17141 1.62841,0.68564 2.05694,1.45699 0.42853,0.68565 0.68565,1.457 0.94277,2.22836 0.17141,1.02846 0.34282,2.14264 0.34282,3.25682 0.0857,0.51423 0.34282,0.77135 0.85706,0.77135 1.88552,0 3.68535,0 5.57087,0 0,0 0.0857,0 0.17142,0 0.34282,-0.0857 0.59994,-0.34283 0.51423,-0.59994 -0.0857,-2.22835 -0.34282,-4.4567 -1.02847,-6.59935 -0.42853,-1.37129 -1.11417,-2.74259 -1.97123,-3.94247 -1.457,-1.79982 -3.25682,-2.91399 -5.57088,-3.34252 -1.457,-0.34283 -2.914,-0.34283 -4.371,-0.0857 -3.42823,0.51424 -6.08511,2.22835 -8.14205,4.97094 -1.28558,1.62841 -2.05694,3.42823 -2.65688,5.39946 -0.68564,2.39977 -0.85705,4.79953 -0.77135,7.285 0.0857,2.65688 0.68565,5.14235 1.79982,7.54211 1.28559,2.74258 3.17112,4.97093 5.74229,6.51364 0.94277,0.51423 1.79982,1.02847 2.74259,1.62841 1.02847,0.59994 1.97123,1.19988 2.9997,1.79982 1.37129,0.85706 2.65688,1.71412 3.94247,2.74259 0.94276,0.85705 1.79982,1.71411 2.48547,2.74258 2.14264,2.82829 2.39976,5.9137 1.11417,9.25623 -0.34282,0.77135 -0.85706,1.37129 -1.457,1.88553 -1.457,1.11417 -3.17111,1.62841 -4.97093,1.62841 -1.88553,-0.0857 -3.34253,-0.94277 -4.28529,-2.48547 -0.42853,-0.77135 -0.77136,-1.54271 -0.94277,-2.39976 -0.17141,-1.02847 -0.25712,-1.97124 -0.34282,-2.914 0,-0.51424 -0.25712,-0.77135 -0.68565,-0.68565 -0.85706,0 -1.71411,0 -2.57117,0.0857 0,0 0,0 0,0 z" />
          </g>
          <g
             style="font-style:normal;font-variant:normal;font-weight:normal;font-stretch:normal;font-size:45.4349px;line-height:1.25;font-family:'Berlin Sans FB Demi';-inkscape-font-specification:'Berlin Sans FB Demi';letter-spacing:0px;fill:#de87cd;stroke-width:1.13587"
             id="text880"
             aria-label="Pad ">
            <path
               id="path921"
               style="font-style:normal;font-variant:normal;font-weight:normal;font-stretch:normal;font-size:85.7058px;font-family:'Alone On Earth';-inkscape-font-specification:'Alone On Earth, Normal';font-variant-ligatures:normal;font-variant-caps:normal;font-variant-numeric:normal;font-variant-east-asian:normal;letter-spacing:0px;fill:#de87cd;fill-opacity:1;stroke-width:1.13587"
               d="m -74.826717,958.30215 c 0,9.25623 -0.08571,18.51245 0,27.76868 0,0.59994 0,1.19988 0,1.79982 0,0.34283 0.257117,0.59994 0.599941,0.59994 1.199881,0 2.399762,0.0857 3.685349,0.0857 0.685647,0 1.456999,-0.0857 2.142645,-0.0857 0.257118,0 0.514235,-0.25711 0.514235,-0.42853 0.08571,-0.59994 0.08571,-1.19988 0.08571,-1.88552 0,-5.65659 0,-11.31317 0.08571,-16.96975 0,-0.59994 0,-1.19988 0,-1.79982 0,-0.42853 0.257117,-0.68565 0.685646,-0.77136 0.685646,-0.0857 1.456999,-0.0857 2.142645,-0.17141 2.314057,-0.17141 4.542408,-0.68564 6.685053,-1.62841 5.142348,-2.14264 8.57058,-5.9994 9.941873,-11.48458 0.685646,-2.65688 0.857058,-5.22805 0.599941,-7.88493 -0.171412,-2.14264 -0.514235,-4.28529 -1.285588,-6.34223 -1.799821,-5.05664 -5.399465,-8.39917 -10.541813,-9.94187 -2.314057,-0.68565 -4.713819,-0.94277 -7.113582,-1.02847 -2.142645,0 -4.28529,0 -6.513641,0 -0.342823,0 -0.685646,0.0857 -1.02847,0.0857 -0.342823,0 -0.59994,0.25712 -0.685646,0.59994 0,0.59995 0,1.19989 0,1.79983 0,9.25622 0,18.51245 0,27.68297 0,0 0,0 0,0 z m 7.113582,-20.82651 c 0,-0.59994 0.0857,-1.11417 0.0857,-1.71412 0,-0.17141 0.171412,-0.34282 0.342824,-0.34282 0.0857,0 0.171411,-0.0857 0.171411,-0.0857 1.971234,-0.0857 3.942467,0.0857 5.827995,0.68564 3.085409,1.11418 5.056642,3.25682 5.999406,6.25653 0.428529,1.37129 0.599941,2.65688 0.599941,4.02817 0.08571,1.88553 -0.08571,3.77105 -0.599941,5.65658 -0.171412,0.59994 -0.342823,1.19988 -0.599941,1.71412 -0.857058,1.97123 -2.314056,3.34252 -4.199584,4.28529 -0.257117,0.0857 -0.514235,0.25712 -0.857058,0.34282 -1.971233,0.68565 -4.028173,0.94276 -6.085112,1.02847 -0.342823,0.0857 -0.599941,-0.17141 -0.685646,-0.51423 0,-0.51424 0,-1.11418 0,-1.62841 0,-3.34253 0,-6.68506 0,-9.94188 0,0 0,0 0,0 0,-3.25682 0,-6.51364 0,-9.77046 z" />
            <path
               id="path923"
               style="font-style:normal;font-variant:normal;font-weight:normal;font-stretch:normal;font-size:85.7058px;font-family:'Alone On Earth';-inkscape-font-specification:'Alone On Earth, Normal';font-variant-ligatures:normal;font-variant-caps:normal;font-variant-numeric:normal;font-variant-east-asian:normal;letter-spacing:0px;fill:#de87cd;fill-opacity:1;stroke-width:1.13587"
               d="m -18.105544,974.15772 c 0,-1.11417 0,-2.31405 -0.08571,-3.51393 -0.08571,-3.25682 -0.257118,-6.51364 -0.428529,-9.77047 -0.257118,-3.25682 -0.514235,-6.51364 -0.942764,-9.68475 -0.428529,-3.08541 -0.942764,-6.08511 -1.62841,-9.08482 -0.514235,-2.31405 -1.199881,-4.5424 -2.142645,-6.68505 -0.428529,-1.02847 -1.02847,-2.05694 -1.714116,-3.08541 -0.514235,-0.68564 -1.114176,-1.37129 -1.885528,-1.97123 -0.942764,-0.59994 -1.971233,-1.02847 -3.085409,-1.02847 -1.456999,0 -2.65688,0.51423 -3.685349,1.457 -0.685647,0.59994 -1.285587,1.28559 -1.799822,2.05694 -0.771353,1.19988 -1.285587,2.39976 -1.799822,3.59964 -0.942764,2.39976 -1.62841,4.79953 -2.228351,7.28499 -0.685646,2.8283 -1.199881,5.65659 -1.542704,8.48488 -0.428529,2.914 -0.857058,5.82799 -1.114176,8.8277 -0.08571,1.5427 -0.257117,3.17111 -0.428529,4.79952 -0.171412,2.57118 -0.428529,5.14235 -0.514235,7.71352 -0.257117,4.54241 -0.428529,9.08482 -0.59994,13.62723 -0.08571,0.17141 -0.08571,0.34282 0,0.51423 0,0.0857 0.171411,0.25712 0.257117,0.25712 0.428529,0.0857 0.857058,0.17141 1.285587,0.17141 1.62841,0.25712 3.256821,0.25712 4.970937,0.25712 0.257117,0 0.428529,-0.17141 0.514234,-0.42853 0,-0.0857 0,-0.25712 0,-0.34282 0.171412,-2.31406 0.257118,-4.54241 0.428529,-6.85647 0.08571,-1.79982 0.257118,-3.68535 0.342824,-5.48517 0,-0.17141 0.08571,-0.25712 0.08571,-0.34282 0.08571,-0.25712 0.257117,-0.34283 0.428529,-0.42853 0.171411,0 0.428529,-0.0857 0.685646,-0.0857 2.828291,0 5.656583,0 8.484874,0 0.171412,0 0.342824,0 0.599941,0 0.257117,0 0.514235,0.25712 0.514235,0.59994 0.171411,2.14265 0.257117,4.28529 0.342823,6.42794 0.08571,1.88553 0.171412,3.85676 0.257117,5.74229 0.08571,0.34282 0.08571,0.59994 0.171412,0.94276 0,0.0857 0.171412,0.25712 0.342823,0.34282 0.257118,0.0857 0.514235,0.0857 0.685647,0 1.542704,0 2.999703,-0.0857 4.456701,-0.0857 0.342824,-0.0857 0.599941,-0.0857 0.942764,-0.0857 0.257118,0 0.428529,-0.25712 0.514235,-0.51423 0,-0.51424 0,-1.11418 0,-1.62841 -0.171411,-4.02818 -0.428529,-7.97064 -0.59994,-11.99882 0,0 -0.08571,0 -0.08571,0 z m -15.769868,-6.77075 c -0.257117,0 -0.599941,-0.0857 -0.942764,-0.0857 -0.171411,0 -0.428529,-0.25712 -0.428529,-0.51423 0.08571,-1.11418 0.08571,-2.22836 0.257118,-3.25683 0.0857,-1.79982 0.342823,-3.59964 0.514234,-5.31375 0.257118,-2.39977 0.514235,-4.79953 0.857058,-7.19929 0.428529,-2.57118 0.771353,-5.05664 1.371293,-7.62782 0.428529,-1.62841 0.771352,-3.17111 1.456999,-4.71382 0.08571,-0.34282 0.257117,-0.59994 0.428529,-0.85706 0.08571,-0.0857 0.257117,-0.0857 0.342823,0 0.171412,0.25712 0.342823,0.51424 0.428529,0.77136 0.685647,1.88552 1.114176,3.77105 1.542705,5.74228 0.685646,3.59965 1.199881,7.19929 1.542704,10.88464 0.257117,3.51394 0.599941,7.02788 0.942764,10.54182 0,0.34282 0,0.68564 0,1.02847 -0.08571,0.25711 -0.171412,0.42852 -0.342823,0.42852 -0.342824,0.0857 -0.599941,0.0857 -0.942764,0.0857 -1.199881,0 -2.485468,0 -3.68535,0 0,0 0,0.0857 0,0.0857 -1.114175,0 -2.228351,0 -3.342526,0 z" />
            <path
               id="path925"
               style="font-style:normal;font-variant:normal;font-weight:normal;font-stretch:normal;font-size:85.7058px;font-family:'Alone On Earth';-inkscape-font-specification:'Alone On Earth, Normal';font-variant-ligatures:normal;font-variant-caps:normal;font-variant-numeric:normal;font-variant-east-asian:normal;letter-spacing:0px;fill:#de87cd;fill-opacity:1;stroke-width:1.13587"
               d="m -10.465676,957.70221 c -0.08571,9.25623 -0.171412,18.51245 -0.257117,27.68297 -0.08571,0.34283 0,0.59995 0,0.94277 0.0857,0.17141 0.342823,0.42853 0.514234,0.42853 0.3428236,0.0857 0.7713527,0.0857 1.1141759,0.0857 1.5427044,0 3.0854089,0 4.6281133,0 1.5427045,0.0857 3.0854089,-0.17141 4.54240759,-0.51423 3.85676111,-0.94277 7.19928741,-2.82829 10.02757921,-5.57088 2.485468,-2.31406 4.370996,-5.05664 5.827994,-8.05634 2.228351,-4.54241 3.428232,-9.42764 3.428232,-14.56999 0,-2.31406 -0.08571,-4.54241 -0.428529,-6.77076 -0.342823,-2.65688 -0.942763,-5.22805 -1.971233,-7.71352 -2.228351,-5.48517 -5.999406,-9.51335 -11.3988718,-11.91311 -1.1141755,-0.51423 -2.3140567,-0.94276 -3.4282321,-1.28559 -2.14264512,-0.68564 -4.370996,-1.11417 -6.5136411,-1.37129 -1.6284102,-0.25712 -3.1711147,-0.34282 -4.7995249,-0.42853 -0.6856465,0 -0.9427641,0.25712 -0.9427641,0.85706 0,0.34282 0,0.68565 0,1.11418 -0.08571,8.99911 -0.257117,18.08392 -0.342823,27.08303 0,0 0,0 0,0 z m 7.3706991,-18.94098 c 0,-2.22835 -0.1714116,-2.48547 2.31405666,-1.79982 1.62841025,0.42852 3.17111474,1.02847 4.62811334,1.79982 2.5711741,1.457 4.5424076,3.51394 5.9137004,6.17082 0.8570585,1.71411 1.4569985,3.51393 1.7998215,5.39946 0.514235,2.39976 0.771353,4.88523 0.771353,7.3707 -0.08571,5.14235 -1.456999,9.94187 -4.1995847,14.31287 -1.1141755,1.79982 -2.5711741,3.42823 -4.2852902,4.79952 -1.5427044,1.19989 -3.2568205,2.14265 -5.228054,2.57118 -0.5999406,0.17141 -1.1998812,0.34282 -1.7998218,0.17141 -0.085706,0 -0.1714116,-0.0857 -0.2571174,-0.25712 -0.085706,-0.0857 -0.085706,-0.34282 -0.085706,-0.51423 -0.085706,-0.59994 0,-1.19988 0,-1.79982 0.085706,-5.48518 0.085706,-10.97035 0.1714116,-16.45552 0.085706,-0.77135 0,-1.5427 0,-2.39976 0,0 0.085706,0 0.085706,0 0,-6.42794 0.085706,-12.85587 0.1714116,-19.36951 z" />
          </g>
          <g
             style="font-style:normal;font-variant:normal;font-weight:normal;font-stretch:normal;font-size:45.4349px;line-height:1.25;font-family:'Berlin Sans FB Demi';-inkscape-font-specification:'Berlin Sans FB Demi';letter-spacing:0px;stroke-width:1.13587"
             id="text868"
             aria-label="Pad ">
            <path
               id="path928"
               style="font-style:normal;font-variant:normal;font-weight:normal;font-stretch:normal;font-size:85.7058px;font-family:'Alone On Earth';-inkscape-font-specification:'Alone On Earth, Normal';font-variant-ligatures:normal;font-variant-caps:normal;font-variant-numeric:normal;font-variant-east-asian:normal;letter-spacing:0px;fill:#881167;fill-opacity:1;stroke-width:1.13587"
               d="m -78.847103,958.30215 c 0,9.25623 -0.08571,18.51245 0,27.76868 0,0.59994 0,1.19988 0,1.79982 0,0.34283 0.257118,0.59994 0.599941,0.59994 1.199881,0 2.399762,0.0857 3.685349,0.0857 0.685647,0 1.456999,-0.0857 2.142645,-0.0857 0.257118,0 0.514235,-0.25711 0.514235,-0.42853 0.08571,-0.59994 0.08571,-1.19988 0.08571,-1.88552 0,-5.65659 0,-11.31317 0.08571,-16.96975 0,-0.59994 0,-1.19988 0,-1.79982 0,-0.42853 0.257117,-0.68565 0.685646,-0.77136 0.685647,-0.0857 1.456999,-0.0857 2.142645,-0.17141 2.314057,-0.17141 4.542408,-0.68564 6.685053,-1.62841 5.142348,-2.14264 8.57058,-5.9994 9.941873,-11.48458 0.685647,-2.65688 0.857058,-5.22805 0.599941,-7.88493 -0.171412,-2.14264 -0.514235,-4.28529 -1.285587,-6.34223 -1.799822,-5.05664 -5.399466,-8.39917 -10.541814,-9.94187 -2.314057,-0.68565 -4.713819,-0.94277 -7.113582,-1.02847 -2.142645,0 -4.28529,0 -6.513641,0 -0.342823,0 -0.685646,0.0857 -1.028469,0.0857 -0.342824,0 -0.599941,0.25712 -0.685647,0.59994 0,0.59995 0,1.19989 0,1.79983 0,9.25622 0,18.51245 0,27.68297 0,0 0,0 0,0 z m 7.113582,-20.82651 c 0,-0.59994 0.08571,-1.11417 0.08571,-1.71412 0,-0.17141 0.171411,-0.34282 0.342823,-0.34282 0.08571,0 0.171412,-0.0857 0.171412,-0.0857 1.971233,-0.0857 3.942466,0.0857 5.827994,0.68564 3.085409,1.11418 5.056642,3.25682 5.999406,6.25653 0.428529,1.37129 0.599941,2.65688 0.599941,4.02817 0.08571,1.88553 -0.08571,3.77105 -0.599941,5.65658 -0.171411,0.59994 -0.342823,1.19988 -0.59994,1.71412 -0.857058,1.97123 -2.314057,3.34252 -4.199585,4.28529 -0.257117,0.0857 -0.514234,0.25712 -0.857058,0.34282 -1.971233,0.68565 -4.028172,0.94276 -6.085112,1.02847 -0.342823,0.0857 -0.59994,-0.17141 -0.685646,-0.51423 0,-0.51424 0,-1.11418 0,-1.62841 0,-3.34253 0,-6.68506 0,-9.94188 0,0 0,0 0,0 0,-3.25682 0,-6.51364 0,-9.77046 z" />
            <path
               id="path930"
               style="font-style:normal;font-variant:normal;font-weight:normal;font-stretch:normal;font-size:85.7058px;font-family:'Alone On Earth';-inkscape-font-specification:'Alone On Earth, Normal';font-variant-ligatures:normal;font-variant-caps:normal;font-variant-numeric:normal;font-variant-east-asian:normal;letter-spacing:0px;fill:#881167;fill-opacity:1;stroke-width:1.13587"
               d="m -22.12593,974.15772 c 0,-1.11417 0,-2.31405 -0.08571,-3.51393 -0.08571,-3.25682 -0.257117,-6.51364 -0.428529,-9.77047 -0.257117,-3.25682 -0.514235,-6.51364 -0.942764,-9.68475 -0.428529,-3.08541 -0.942764,-6.08511 -1.62841,-9.08482 -0.514235,-2.31405 -1.199881,-4.5424 -2.142645,-6.68505 -0.428529,-1.02847 -1.02847,-2.05694 -1.714116,-3.08541 -0.514235,-0.68564 -1.114176,-1.37129 -1.885528,-1.97123 -0.942764,-0.59994 -1.971233,-1.02847 -3.085409,-1.02847 -1.456998,0 -2.65688,0.51423 -3.685349,1.457 -0.685647,0.59994 -1.285587,1.28559 -1.799822,2.05694 -0.771352,1.19988 -1.285587,2.39976 -1.799822,3.59964 -0.942764,2.39976 -1.62841,4.79953 -2.228351,7.28499 -0.685646,2.8283 -1.199881,5.65659 -1.542704,8.48488 -0.428529,2.914 -0.857058,5.82799 -1.114176,8.8277 -0.08571,1.5427 -0.257117,3.17111 -0.428529,4.79952 -0.171411,2.57118 -0.428529,5.14235 -0.514234,7.71352 -0.257118,4.54241 -0.428529,9.08482 -0.599941,13.62723 -0.08571,0.17141 -0.08571,0.34282 0,0.51423 0,0.0857 0.171412,0.25712 0.257117,0.25712 0.428529,0.0857 0.857058,0.17141 1.285587,0.17141 1.628411,0.25712 3.256821,0.25712 4.970937,0.25712 0.257117,0 0.428529,-0.17141 0.514235,-0.42853 0,-0.0857 0,-0.25712 0,-0.34282 0.171411,-2.31406 0.257117,-4.54241 0.428529,-6.85647 0.08571,-1.79982 0.257117,-3.68535 0.342823,-5.48517 0,-0.17141 0.08571,-0.25712 0.08571,-0.34282 0.08571,-0.25712 0.257117,-0.34283 0.428529,-0.42853 0.171411,0 0.428529,-0.0857 0.685646,-0.0857 2.828292,0 5.656583,0 8.484875,0 0.171411,0 0.342823,0 0.59994,0 0.257118,0 0.514235,0.25712 0.514235,0.59994 0.171412,2.14265 0.257118,4.28529 0.342823,6.42794 0.08571,1.88553 0.171412,3.85676 0.257118,5.74229 0.08571,0.34282 0.08571,0.59994 0.171411,0.94276 0,0.0857 0.171412,0.25712 0.342824,0.34282 0.257117,0.0857 0.514234,0.0857 0.685646,0 1.542704,0 2.999703,-0.0857 4.456702,-0.0857 0.342823,-0.0857 0.59994,-0.0857 0.942764,-0.0857 0.257117,0 0.428529,-0.25712 0.514234,-0.51423 0,-0.51424 0,-1.11418 0,-1.62841 -0.171411,-4.02818 -0.428529,-7.97064 -0.59994,-11.99882 0,0 -0.08571,0 -0.08571,0 z m -15.769868,-6.77075 c -0.257117,0 -0.59994,-0.0857 -0.942764,-0.0857 -0.171411,0 -0.428529,-0.25712 -0.428529,-0.51423 0.08571,-1.11418 0.08571,-2.22836 0.257118,-3.25683 0.08571,-1.79982 0.342823,-3.59964 0.514235,-5.31375 0.257117,-2.39977 0.514234,-4.79953 0.857058,-7.19929 0.428529,-2.57118 0.771352,-5.05664 1.371292,-7.62782 0.42853,-1.62841 0.771353,-3.17111 1.456999,-4.71382 0.08571,-0.34282 0.257118,-0.59994 0.428529,-0.85706 0.08571,-0.0857 0.257118,-0.0857 0.342823,0 0.171412,0.25712 0.342824,0.51424 0.428529,0.77136 0.685647,1.88552 1.114176,3.77105 1.542705,5.74228 0.685646,3.59965 1.199881,7.19929 1.542704,10.88464 0.257118,3.51394 0.599941,7.02788 0.942764,10.54182 0,0.34282 0,0.68564 0,1.02847 -0.08571,0.25711 -0.171411,0.42852 -0.342823,0.42852 -0.342823,0.0857 -0.599941,0.0857 -0.942764,0.0857 -1.199881,0 -2.485468,0 -3.685349,0 0,0 0,0.0857 0,0.0857 -1.114176,0 -2.228351,0 -3.342527,0 z" />
            <path
               id="path932"
               style="font-style:normal;font-variant:normal;font-weight:normal;font-stretch:normal;font-size:85.7058px;font-family:'Alone On Earth';-inkscape-font-specification:'Alone On Earth, Normal';font-variant-ligatures:normal;font-variant-caps:normal;font-variant-numeric:normal;font-variant-east-asian:normal;letter-spacing:0px;fill:#881167;fill-opacity:1;stroke-width:1.13587"
               d="m -14.486062,957.70221 c -0.08571,9.25623 -0.171411,18.51245 -0.257117,27.68297 -0.08571,0.34283 0,0.59995 0,0.94277 0.08571,0.17141 0.342823,0.42853 0.514235,0.42853 0.342823,0.0857 0.771352,0.0857 1.114175,0.0857 1.542705,0 3.085409,0 4.6281135,0 1.5427044,0.0857 3.0854089,-0.17141 4.5424075,-0.51423 3.85676118,-0.94277 7.1992875,-2.82829 10.027579,-5.57088 2.4854683,-2.31406 4.370996,-5.05664 5.827995,-8.05634 2.22835,-4.54241 3.428232,-9.42764 3.428232,-14.56999 0,-2.31406 -0.08571,-4.54241 -0.428529,-6.77076 -0.342824,-2.65688 -0.942764,-5.22805 -1.971234,-7.71352 -2.228351,-5.48517 -5.999406,-9.51335 -11.3988716,-11.91311 -1.11417541,-0.51423 -2.31405665,-0.94276 -3.4282321,-1.28559 -2.1426451,-0.68564 -4.3709959,-1.11417 -6.513641,-1.37129 -1.6284103,-0.25712 -3.1711143,-0.34282 -4.7995253,-0.42853 -0.685646,0 -0.942764,0.25712 -0.942764,0.85706 0,0.34282 0,0.68565 0,1.11418 -0.08571,8.99911 -0.257117,18.08392 -0.342823,27.08303 0,0 0,0 0,0 z m 7.3706993,-18.94098 c 0,-2.22835 -0.1714116,-2.48547 2.3140567,-1.79982 1.6284103,0.42852 3.1711147,1.02847 4.62811337,1.79982 2.57117413,1.457 4.54240753,3.51394 5.91370043,6.17082 0.857058,1.71411 1.4569986,3.51393 1.7998218,5.39946 0.5142349,2.39976 0.7713523,4.88523 0.7713523,7.3707 -0.085706,5.14235 -1.4569987,9.94187 -4.1995844,14.31287 -1.1141754,1.79982 -2.5711741,3.42823 -4.28529013,4.79952 -1.54270447,1.19989 -3.25682047,2.14265 -5.22805397,2.57118 -0.5999406,0.17141 -1.1998812,0.34282 -1.7998219,0.17141 -0.085706,0 -0.1714116,-0.0857 -0.2571174,-0.25712 -0.085706,-0.0857 -0.085706,-0.34282 -0.085706,-0.51423 -0.085706,-0.59994 0,-1.19988 0,-1.79982 0.085706,-5.48518 0.085706,-10.97035 0.1714116,-16.45552 0.085706,-0.77135 0,-1.5427 0,-2.39976 0,0 0.085706,0 0.085706,0 0,-6.42794 0.085706,-12.85587 0.1714116,-19.36951 z" />
          </g>
          <path
             d="m 36.100991,965.8688 a 7.2833052,5.8899407 0 0 1 -8.655674,4.47104 7.2833052,5.8899407 0 0 1 -5.578043,-6.97413 7.2833052,5.8899407 0 0 1 8.592013,-4.55064 7.2833052,5.8899407 0 0 1 5.676101,6.9222"
             style="fill:#2b0022;fill-rule:evenodd;stroke-width:1.01054"
             id="path882" />
        </g>
      </g>
    </g>
  </g>
</svg>
